<svg id="Group_6583" data-name="Group 6583" xmlns="http://www.w3.org/2000/svg" width="32" height="32" viewBox="0 0 32 32">
  <g id="Ellipse_338" data-name="Ellipse 338" fill="none" stroke="#4a525d" stroke-width="1.2">
    <circle cx="16" cy="16" r="16" stroke="none"/>
    <circle cx="16" cy="16" r="15.4" fill="none"/>
  </g>
  <g id="linked-in" transform="translate(10 9)">
    <path id="Path_1493" data-name="Path 1493" d="M16.98,16.569h0v-4.82c0-2.358-.508-4.174-3.264-4.174a2.862,2.862,0,0,0-2.578,1.417H11.1v-1.2H8.489v8.774h2.722V12.224c0-1.144.217-2.25,1.634-2.25,1.4,0,1.417,1.305,1.417,2.323v4.272Z" transform="translate(-3.84 -3.426)" fill="#4a525d"/>
    <path id="Path_1494" data-name="Path 1494" d="M.4,7.977H3.121v8.774H.4Z" transform="translate(-0.179 -3.609)" fill="#4a525d"/>
    <path id="Path_1495" data-name="Path 1495" d="M1.578,0A1.586,1.586,0,1,0,3.156,1.578,1.579,1.579,0,0,0,1.578,0Z" fill="#4a525d"/>
  </g>
</svg>
